<?xml version="1.0" encoding="UTF-8"?> <svg xmlns="http://www.w3.org/2000/svg" id="Слой_1" data-name="Слой 1" viewBox="0 0 863.15 702.51"><defs><style>.cls-1{fill:#fff;}</style></defs><path d="M1113.24,695.75c-49.54-85.9-121.79-134.06-220.89-147.23l-8-1.06,3.88-7.05c26.18-47.48,50.6-89.9,84.33-128.13,39.1-44.31,86-76.77,143.41-99.26l2-.79,2,.79c65.89,25.91,118.43,58,156.17,95.3,38.78,38.37,63.06,83.37,72.16,133.77l1,5.71-5.76.73c-101.7,12.75-173.92,60.87-220.78,147.1l-4.69,8.63Z" transform="translate(-492.67 -160)"></path><path class="cls-1" d="M1118,318.14c129.64,51,206.87,125,224.93,224.93C1236.37,556.43,1163.64,609,1118,693c-47.84-83-120.28-136-224.93-149.93,48.71-88.36,99.34-175.74,224.93-224.93m0-11.82-4,1.58c-58.24,22.81-105.85,55.76-145.53,100.74-34.11,38.66-58.68,81.35-85,129.12l-7.77,14.09,16,2.12c97.29,12.93,168.22,60.21,216.85,144.53l9.82,17,9.38-17.26C1173.62,613.69,1244.48,566.5,1344.3,554l11.52-1.44-2.07-11.43c-9.31-51.53-34.11-97.52-73.71-136.7-38.26-37.86-91.43-70.33-158-96.51l-4-1.58Z" transform="translate(-492.67 -160)"></path><circle cx="625.33" cy="118" r="112.5"></circle><path class="cls-1" d="M1118,171a107,107,0,1,1-107,107,107,107,0,0,1,107-107m0-11a118,118,0,1,0,83.44,34.56A117.22,117.22,0,0,0,1118,160Z" transform="translate(-492.67 -160)"></path><path d="M730.24,695.75c-49.54-85.9-121.79-134.06-220.89-147.23l-8-1.06,3.88-7.05c26.18-47.48,50.6-89.9,84.33-128.13C628.68,368,675.59,335.51,733,313l2-.79,2,.79c65.89,25.91,118.43,58,156.17,95.3,38.78,38.37,63.06,83.37,72.16,133.77l1,5.71-5.76.73c-101.7,12.75-173.92,60.87-220.78,147.1l-4.69,8.63Z" transform="translate(-492.67 -160)"></path><path class="cls-1" d="M735,318.14c129.64,51,206.87,125,224.93,224.93C853.37,556.43,780.64,609,735,693c-47.84-83-120.28-136-224.93-149.93C558.78,454.71,609.41,367.33,735,318.14m0-11.82-4,1.58c-58.24,22.81-105.85,55.76-145.53,100.74-34.11,38.66-58.68,81.35-85,129.12l-7.77,14.09L508.62,554c97.29,12.93,168.22,60.21,216.85,144.53l9.82,17,9.38-17.26C790.62,613.69,861.48,566.5,961.3,554l11.52-1.44-2.07-11.43c-9.31-51.53-34.11-97.52-73.71-136.7-38.26-37.86-91.43-70.33-158-96.51l-4-1.58Z" transform="translate(-492.67 -160)"></path><circle cx="242.33" cy="118" r="112.5"></circle><path class="cls-1" d="M735,171A107,107,0,1,1,628,278,107,107,0,0,1,735,171m0-11a118,118,0,1,0,83.44,34.56A117.22,117.22,0,0,0,735,160Z" transform="translate(-492.67 -160)"></path><path d="M923.24,842.75c-49.54-85.9-121.8-134.06-220.89-147.23l-8-1.06,3.88-7c26.18-47.49,50.6-89.91,84.33-128.14C821.68,515,868.59,482.51,926,460l2-.79,2,.79c65.89,25.91,118.43,58,156.17,95.3,38.78,38.37,63.06,83.37,72.16,133.77l1,5.72-5.76.72c-101.7,12.75-173.92,60.87-220.78,147.1l-4.69,8.63Z" transform="translate(-492.67 -160)"></path><path class="cls-1" d="M928,465.14c129.64,51,206.87,125,224.93,224.93C1046.37,703.43,973.64,756,928,840c-47.84-83-120.28-136-224.93-149.93C751.78,601.71,802.41,514.33,928,465.14m0-11.82-4,1.58c-58.24,22.81-105.85,55.76-145.53,100.74-34.11,38.66-58.68,81.35-85,129.12l-7.77,14.09,16,2.12c97.29,12.93,168.22,60.21,216.85,144.53l9.82,17,9.38-17.26c46-84.56,116.81-131.75,216.63-144.27l11.52-1.44-2.07-11.43c-9.31-51.53-34.11-97.52-73.71-136.7-38.26-37.86-91.43-70.33-158-96.51l-4-1.58Z" transform="translate(-492.67 -160)"></path><circle cx="435.33" cy="265" r="112.5"></circle><path class="cls-1" d="M928,318A107,107,0,1,1,821,425,107,107,0,0,1,928,318m0-11a118,118,0,1,0,83.44,34.56A117.22,117.22,0,0,0,928,307Z" transform="translate(-492.67 -160)"></path></svg> 