<?xml version="1.0" encoding="UTF-8"?>
<svg id="_Слой_1" data-name="Слой 1" xmlns="http://www.w3.org/2000/svg" viewBox="0 0 770.47 686.94">
  <defs>
    <style>
      .cls-1 {
        fill: #fff;
        stroke-width: 39px;
      }

      .cls-1, .cls-2 {
        stroke: #000;
        stroke-miterlimit: 10;
      }

      .cls-2 {
        fill: none;
        stroke-width: 22px;
      }
    </style>
  </defs>
  <line class="cls-2" x1="126.47" y1="87" x2="639.47" y2="87"/>
  <path class="cls-2" d="M757.95,87V497.67c0,39.39-36.36,71.33-81.22,71.33H84.58c-40.64,0-73.58-32.94-73.58-73.58V87"/>
  <path class="cls-2" d="M644.47,49V476c48-54,110-11,115,22V73.03c0-39.23-27-62.03-71.03-62.03-19.97,0-43.97,23-43.97,38Z"/>
  <g>
    <path d="M174.5,251.3h-18.71v-73.23h24.7c8.84,0,15.89,2.25,21.17,6.74,5.27,4.49,7.91,10.55,7.91,18.17s-2.64,13.68-7.91,18.17c-5.27,4.49-12.33,6.74-21.17,6.74h-5.99v23.41Zm15.82-48.32c0-2.49-.87-4.44-2.62-5.83-1.75-1.39-4.15-2.08-7.22-2.08h-5.99v15.82h5.99c3.06,0,5.47-.69,7.22-2.08,1.74-1.39,2.62-3.33,2.62-5.83Z"/>
    <path d="M238.43,251.3h-18.71v-73.23h25.87c8.48,0,15.34,2.1,20.58,6.31,5.24,4.21,7.86,9.77,7.86,16.68,0,4.42-1,8.3-2.99,11.65-2,3.35-4.88,5.95-8.66,7.8l15.93,30.79h-20.1l-12.72-25.55h-7.06v25.55Zm16.36-49.39c0-2.07-.78-3.72-2.35-4.97-1.57-1.25-3.67-1.87-6.31-1.87h-7.7v13.68h7.7c2.64,0,4.74-.62,6.31-1.87,1.57-1.25,2.35-2.9,2.35-4.97Z"/>
    <path d="M283.11,214.63c0-10.69,3.65-19.63,10.96-26.83,7.31-7.2,16.37-10.8,27.21-10.8s19.9,3.6,27.21,10.8c7.31,7.2,10.96,16.14,10.96,26.83s-3.63,19.74-10.9,26.94c-7.27,7.2-16.36,10.8-27.26,10.8s-19.99-3.6-27.26-10.8c-7.27-7.2-10.9-16.18-10.9-26.94Zm56.55,0c0-5.7-1.76-10.48-5.29-14.33-3.53-3.85-7.89-5.77-13.1-5.77s-9.57,1.92-13.1,5.77c-3.53,3.85-5.29,8.62-5.29,14.33s1.74,10.58,5.24,14.43c3.49,3.85,7.87,5.77,13.15,5.77s9.66-1.92,13.15-5.77c3.49-3.85,5.24-8.66,5.24-14.43Z"/>
    <path d="M385.96,252.37c-4.28,0-8.3-.84-12.08-2.51-3.78-1.67-7.31-4.19-10.58-7.54l11.65-12.83c1.71,1.78,3.46,3.12,5.24,4.01,1.78,.89,3.64,1.34,5.56,1.34,2.71,0,4.77-.8,6.2-2.41,1.43-1.6,2.14-3.94,2.14-7v-47.36h19.24v47.57c0,8.77-2.32,15.41-6.95,19.94-4.63,4.53-11.44,6.79-20.42,6.79Z"/>
    <path d="M474.69,251.3h-47.89v-73.23h47.89v17h-28.65v10.69h25.44v17h-25.44v11.55h28.65v17Z"/>
    <path d="M502.59,214.74c0,5.7,1.78,10.48,5.34,14.33,3.56,3.85,7.95,5.77,13.15,5.77,2.99,0,5.74-.6,8.23-1.82,2.49-1.21,5.13-3.21,7.91-5.99l11.87,12.83c-4.13,4.28-8.48,7.43-13.04,9.46-4.56,2.03-9.55,3.05-14.97,3.05-10.9,0-20.01-3.58-27.31-10.74-7.31-7.16-10.96-16.12-10.96-26.89s3.65-19.74,10.96-26.94c7.31-7.2,16.41-10.8,27.31-10.8,5.13,0,9.96,.98,14.49,2.94,4.53,1.96,8.68,4.83,12.45,8.61l-11.65,12.83c-2.35-2.35-4.76-4.08-7.22-5.18-2.46-1.1-5.15-1.66-8.07-1.66-5.27,0-9.68,1.92-13.2,5.77-3.53,3.85-5.29,8.66-5.29,14.43Z"/>
    <path d="M573.36,195.07h-20.63v-17h60.51v17h-20.63v56.23h-19.24v-56.23Z"/>
  </g>
  <circle class="cls-1" cx="385.94" cy="498.9" r="168.54"/>
  <path class="cls-2" d="M126.47,49.19V476.19c-48-54-110-11-115,22V73.23c0-39.23,27-62.03,71.03-62.03,19.97,0,43.97,23,43.97,38Z"/>
  <polygon points="278.31 498 372.74 599.74 502.24 446.22 435.74 396.74 369.74 531.74 321.28 464.6 278.31 498"/>
</svg>