<svg id="Слой_1" data-name="Слой 1" xmlns="http://www.w3.org/2000/svg" viewBox="0 0 917 955"><defs><style>.cls-1,.cls-3{fill:#fff;}.cls-2{fill:none;}.cls-2,.cls-3{stroke:#000;stroke-miterlimit:10;stroke-width:20px;}</style></defs><path d="M1164.18,711.37c-39.09-67.78-96.11-105.78-174.32-116.17l-8-1.07,3.88-7C1022,521.41,1063,447,1166.94,406.27l1.27-.5,1.36.16c52.13,6,95.39,28.18,128.58,66,27.17,31,46.54,72.45,54.56,116.83l.2,1.14-.27,1.13c-14.6,60.27-90.73,88.6-151.9,111.36-10.52,3.92-20.46,7.61-29.76,11.33l-4.42,1.77Z" transform="translate(-547 -64)"/><path class="cls-1" d="M1168.94,411.39C1279,424,1333,510.48,1347.29,589.74,1331,657,1233,683,1168.94,708.63c-37.93-65.78-95.37-107.86-178.35-118.89,38.63-70.06,78.77-139.34,178.35-178.35m-1.46-11.24-2.55,1c-46.53,18.22-84.56,44.55-116.27,80.49-27.2,30.83-46.75,64.79-67.7,102.79l-7.78,14.1,16,2.12c76.4,10.15,132.09,47.27,170.27,113.47l4.77,8.26,8.85-3.54c9.23-3.69,19.14-7.38,29.63-11.28,30.53-11.37,65.15-24.25,93.79-41.65,34.49-20.95,54.62-45,61.53-73.58l.55-2.26-.41-2.28a265.15,265.15,0,0,0-19.24-62.11,230.87,230.87,0,0,0-36.59-57.36,199.77,199.77,0,0,0-55.87-44.59c-22.92-12.27-48.56-20.1-76.23-23.27l-2.71-.31Z" transform="translate(-547 -64)"/><circle cx="621.94" cy="315.56" r="90.34"/><path class="cls-1" d="M1168.94,294.72a84.85,84.85,0,1,1-84.84,84.84,84.83,84.83,0,0,1,84.84-84.84m0-11a95.85,95.85,0,1,0,95.84,95.84,95.94,95.94,0,0,0-95.84-95.84Z" transform="translate(-547 -64)"/><path d="M864.32,714.13c-43.35,0-88.35-12.68-123.48-34.79-38.28-24.09-59.39-55.91-59.44-89.59v-.46l.07-.46c9-53.52,28.88-94.15,60.78-124.19C771.17,437.4,811,418.23,864,406l1.66-.38,1.58.62c52.39,20.6,94.18,46.11,124.21,75.82,30.92,30.59,50.28,66.48,57.55,106.68l1,5.71-5.76.72c-80.26,10.06-137.24,48-174.21,116l-1.55,2.86Z" transform="translate(-547 -64)"/><path class="cls-1" d="M865.25,411.39c102.8,40.42,164,99.09,178.35,178.35C959.11,600.34,901.44,642,865.25,708.63h-.93c-85,0-177.32-50.88-177.42-118.89C705,482,767,434,865.25,411.39m.86-11.48-3.33.76c-26.39,6.07-49,13.6-69,23-21.63,10.17-39.73,22.25-55.32,36.94-32.81,30.9-53.23,72.54-62.43,127.29l-.15.91v.93c.05,35.64,22.08,69.11,62,94.24,36,22.64,82.05,35.63,126.41,35.63h1l6.51,0,3.11-5.72C911,647.52,966.6,610.49,1045,600.66l11.52-1.45-2.06-11.42c-7.47-41.33-27.35-78.21-59.09-109.61-30.56-30.24-73-56.15-126.06-77l-3.17-1.24Z" transform="translate(-547 -64)"/><circle cx="865.25" cy="379.56" r="90.34" transform="translate(-249.95 1070.46) rotate(-76.72)"/><path class="cls-1" d="M865.25,294.72a84.85,84.85,0,1,1-84.84,84.84,84.83,84.83,0,0,1,84.84-84.84m0-11a95.85,95.85,0,1,0,95.84,95.84,95.94,95.94,0,0,0-95.84-95.84Z" transform="translate(-547 -64)"/><path d="M1018.29,830.69c-151.8,0-183.77-67.64-183.86-124.38v-.2l0-.21c3.4-46.43,21.83-83.84,56.32-114.38,34.86-30.86,83-52,125.51-68.69l2-.79,2,.79c57.52,22.62,97.62,45.47,126.21,71.93,33.16,30.69,51.34,67,55.6,111l0,.25v.24c.26,33.72-9.25,59.82-29.07,79.79C1143.68,815.67,1091.61,830.69,1018.29,830.69Z" transform="translate(-547 -64)"/><path class="cls-1" d="M1018.29,528c102.79,40.42,169.71,89,178.35,178.35.36,46.7-17.07,118.89-178.35,118.89S840,748,839.93,706.3C847,610,918.71,567,1018.29,528m0-11.82-4,1.58C971.32,534.53,922.63,556,887.13,587.4S832.48,657.57,829,705.5l0,.41v.41c.06,33.75,10.8,61.62,31.93,82.82,31.1,31.22,84.07,47.05,157.43,47.05,39.49,0,73.25-4.33,100.35-12.86,24.31-7.65,43.93-18.89,58.34-33.4,20.9-21.07,30.93-48.45,30.66-83.71v-.49l0-.49c-4.4-45.41-23.15-82.87-57.35-114.52-29.1-26.93-69.75-50.13-127.93-73l-4-1.58Z" transform="translate(-547 -64)"/><path d="M1018.29,586.46a90.34,90.34,0,1,1,90.34-90.34A90.44,90.44,0,0,1,1018.29,586.46Z" transform="translate(-547 -64)"/><path class="cls-1" d="M1018.29,411.28a84.85,84.85,0,1,1-84.85,84.84,84.84,84.84,0,0,1,84.85-84.84m0-11a95.85,95.85,0,1,0,95.84,95.84,96,96,0,0,0-95.84-95.84Z" transform="translate(-547 -64)"/><path class="cls-2" d="M982.18,976.38C762.48,964.52,588,782.61,588,560" transform="translate(-547 -64)"/><polygon points="396.4 877.18 429.27 912.12 394.32 944.96 423.1 945.85 458.03 913 425.18 878.07 396.4 877.18"/><path class="cls-2" d="M1421.46,582.8c-11,204-168.6,369-369.3,391.57" transform="translate(-547 -64)"/><polygon points="839.21 557.55 874.17 524.71 906.99 559.69 907.9 530.91 875.08 495.95 840.12 528.77 839.21 557.55"/><path class="cls-2" d="M1066.31,109.08c201.2,29.7,355.62,203.09,355.62,412.56" transform="translate(-547 -64)"/><polygon points="554.63 83.75 525.15 45.92 563.01 16.46 534.44 12.9 496.6 42.36 526.06 80.2 554.63 83.75"/><path class="cls-2" d="M588.45,498.79c11.87-219.71,193.77-394.2,416.44-394.2" transform="translate(-547 -64)"/><polygon points="76.66 396.01 41.72 428.88 8.88 393.93 7.99 422.7 40.84 457.64 75.77 424.79 76.66 396.01"/><circle class="cls-3" cx="42" cy="499" r="32"/><circle class="cls-3" cx="875" cy="464" r="32"/><circle class="cls-3" cx="471" cy="42" r="32"/><circle class="cls-3" cx="489" cy="913" r="32"/></svg>